<svg xmlns="http://www.w3.org/2000/svg" width="250" height="250" fill="none" viewBox="0 0 250 250">
<!-- SVG created with Arrow, by QuiverAI (https://quiver.ai) -->
  <path d="m122.9 8.55c-1.02-2.97-3.41-1.29-4.62 1.09-10.55 21.1-3.16 37.65 12.62 54.15-10.76-7.67-17.63-14.69-22.95-25.48-1.33-2.82-2.85-1.13-3.27 1.43-1.87 10.65-1 19.73 4.61 27.97l-3.2-1.73c-29.09-9.86-59.03-21.82-83.26-54.27-2.24-2.73-4.14-1.4-4.43 1.5-3.96 24.61 9.53 44.06 34.55 58.71 8.83 5.54 18.39 10.32 31.31 14.33-23.59-5.28-50.01-15.33-69.1-34.76-2.04-2.22-3.57-1.66-3.15 1.95 1.65 19.81 15.27 33.54 34.37 42.35 11.36 5.47 24.42 9.32 38.83 12.36-21.12-0.83-39.53-3.49-62.28-12.79-2.73-1.34-3.8-0.38-2.11 3.23 11.12 22.9 31.96 27.29 61.06 28.95l9.81 0.07c-12.41 2.1-24.21 3.1-41.71 0.75-3.99-0.64-4.7 0.56-1.79 3.86 10.56 11.66 23.38 13.5 42.67 12.8l8.53-1.21c-7.39 4.2-13.48 6.15-23.96 6.74-1.91 0.12-2.33 0.71 0.53 2.96 7.73 5.6 13.17 6.43 24.07 7.3 5.02 0.5 8.91 1.37 13.33 2.85-6.48 7.56-9.87 13.55-16.22 20.7-16.28 10.55-33.26 17.4-64.35 26.47-5.64 1.6-6.41 4.03-1.93 7.48 12.4 8.43 28.64 5.5 57.79-9.19-9.84 7.99-20.46 14.69-38.96 21.2-2.59 0.88-2.46 3.07 1.08 4.54 14.27 6.04 29.57 3.05 48.09-14.64l2.03-0.38c-5.7 7.88-10.31 14.1-20.51 21.34-2.24 1.98-0.56 2.49 2.6 2.29 18.05-0.54 27.27-9.75 36.7-29.66 3.95-6.92 6.5-9.84 12.44-10.73 26.27-3.42 46.46-9.92 62.04-32.07 9.14-13.72 19.8-24.33 30.97-27.39 4.97-0.74 8.05 0.89 9.88 4.6 0.67 1.45 1.54-0.58 1.89-2.73 1.48-6.55-2.97-12.78-8.49-14.47-1.34-8.11-11.28-13.3-21.53-12.98-9.06 0.3-16.72 2.82-23.49 3.87-5.27-11.24-1.94-21.8-2.61-32.11-1.9-16.79-14.1-26.48-25.72-36.37-13.58-11.87-27.11-25.54-32.16-44.88z" fill="url(#paint0_radial_1523_23816)"/>
  <path d="m139.8 90.06c-6.8-14.38-18.89-19.81-33.66-26.14-27.63-9.96-55.31-21.75-71.3-30.12-3.33-1.69-6.42 1.93-3.13 6.32 14.97 21.59 36.53 29.22 56.15 38.16 9.34 4.08 20.14 6.7 29.41 12.86 9.08 6.54 16.29 18.79 23.16 29.32 6.84 9.89 19.28 19.75 13.55 27.62-4.67 6.77-11.15 12.63-21.25 16.11 14.05-1.13 31.42-7.83 42.7-12.22 14.4-5.9 24.47-11.66 32.53-15.97 7.2-3.81 13.22-4.11 13.67-6.94-0.36-4.83-9.08-6.95-16.61-4.87-14.99 3.52-17.89 3.3-24.11 3.72-15.76-0.84-27.71-9-41.11-37.85z" fill="url(#paint1_radial_1523_23816)" fill-opacity=".75"/>
  <path d="m209 127.8c-0.78 0.85 2.91 6.17 6.84 5.81 3.09-0.27 3.62-2.54 2.84-3.51-1.9-2.54-8.43-3.54-9.68-2.3z" fill="url(#paint2_linear_1523_23816)"/>
  <path d="m111.6 187c-5.9 4.04-8.01 10.55-6.37 11.97 3.74 2.76 18.23-6.95 28.82-14.27 14.05-10.25 21.6-16.98 27.89-22.08 4.83-4.08 2.18-6.6-4.73-3.77-12.76 5.45-23.73 13.54-45.61 28.15z" fill="url(#paint3_linear_1523_23816)" fill-opacity=".5"/>
  <path d="m139.6 47.41c-7.6-9.39-12.52-20.85-14.99-32.3-0.71-3.1 0.31-4.18 1.49-2.31 7.11 13.91 17.12 26.14 31.11 38.29 11.27 10.1 22.02 18.92 22.31 36.17 0.39 7.85-2.47 19.27 2.58 32.21 1.17 2.61 0.14 3.02-3.4 3.09-5.05 0.25-10.6 0.33-15.06-2.73-3.33-2.22-6.31-4.96-8.96-9.05 5.05 4.21 12.63 5.34 14.8 1.86 2.97-5.44 1.39-20.41-2.36-31.49-3.48-9.96-16.18-19.89-27.52-33.74z" fill="url(#paint4_linear_1523_23816)"/>
  <path d="m178.6 178.1c9.19-8.81 13.86-16.38 16.76-19.99 1.86-2.43 0.14-2.8-2.76-1.02-8.45 5.13-18.55 13.14-27.25 21.32-6.93 6.66-11.09 11.37-11.09 14.24 0 2.31 12.49-2.94 24.34-14.55z" fill="url(#paint5_linear_1523_23816)"/>
  <defs>
    <radialGradient id="paint0_radial_1523_23816" cx="0" cy="0" r="1" gradientTransform="translate(115.4 120.2) rotate(103.6) scale(137.7 153.2)" gradientUnits="userSpaceOnUse">
      <stop stop-color="#FF9457" offset="0"/>
      <stop stop-color="#80B4E3" offset=".3672"/>
      <stop stop-color="#A9D7F6" offset=".6667"/>
      <stop stop-color="#62A9E8" offset="1"/>
    </radialGradient>
    <radialGradient id="paint1_radial_1523_23816" cx="0" cy="0" r="1" gradientTransform="translate(111.6 93.68) rotate(71.19) scale(72.41 141.5)" gradientUnits="userSpaceOnUse">
      <stop stop-color="#FF9457" offset="0"/>
      <stop stop-color="#FF9457" stop-opacity=".06" offset="1"/>
    </radialGradient>
    <linearGradient id="paint2_linear_1523_23816" x1="213.7" x2="215" y1="127" y2="134.3" gradientUnits="userSpaceOnUse">
      <stop stop-color="#FFC796" offset="0"/>
      <stop stop-color="#FF9457" offset="1"/>
    </linearGradient>
    <linearGradient id="paint3_linear_1523_23816" x1="135.1" x2="138.1" y1="164" y2="181.3" gradientUnits="userSpaceOnUse">
      <stop stop-color="#55A6EA" offset="0"/>
      <stop stop-color="#55A6EA" stop-opacity=".03" offset="1"/>
    </linearGradient>
    <linearGradient id="paint4_linear_1523_23816" x1="153.9" x2="177.8" y1="15.63" y2="121" gradientUnits="userSpaceOnUse">
      <stop stop-color="#55A6EA" offset="0"/>
      <stop stop-color="#55A6EA" stop-opacity=".03" offset=".7211"/>
    </linearGradient>
    <linearGradient id="paint5_linear_1523_23816" x1="181.1" x2="186.1" y1="156.2" y2="171.9" gradientUnits="userSpaceOnUse">
      <stop stop-color="#FF9457" offset="0"/>
      <stop stop-color="#FF9457" stop-opacity=".03" offset="1"/>
    </linearGradient>
  </defs>
</svg>